<svg width="20" height="22" viewBox="0 0 20 22" fill="none" xmlns="http://www.w3.org/2000/svg">
<path d="M5.74998 1.5C5.74998 1.30109 5.67096 1.11032 5.53031 0.96967C5.38966 0.829018 5.19889 0.75 4.99998 0.75C4.80107 0.75 4.6103 0.829018 4.46965 0.96967C4.329 1.11032 4.24998 1.30109 4.24998 1.5V3.08C2.80998 3.195 1.86598 3.477 1.17198 4.172C0.476979 4.866 0.194979 5.811 0.0789795 7.25H19.921C19.805 5.81 19.523 4.866 18.828 4.172C18.134 3.477 17.189 3.195 15.75 3.079V1.5C15.75 1.30109 15.671 1.11032 15.5303 0.96967C15.3897 0.829018 15.1989 0.75 15 0.75C14.8011 0.75 14.6103 0.829018 14.4696 0.96967C14.329 1.11032 14.25 1.30109 14.25 1.5V3.013C13.585 3 12.839 3 12 3H7.99998C7.16098 3 6.41498 3 5.74998 3.013V1.5Z" fill="#08A652"/>
<path fill-rule="evenodd" clip-rule="evenodd" d="M-0.00012207 11.5C-0.00012207 10.661 -0.000122059 9.915 0.0128779 9.25H19.9869C19.9999 9.915 19.9999 10.661 19.9999 11.5V13.5C19.9999 17.271 19.9999 19.157 18.8279 20.328C17.6569 21.5 15.7709 21.5 11.9999 21.5H7.99988C4.22888 21.5 2.34288 21.5 1.17188 20.328C-0.00012219 19.157 -0.00012207 17.271 -0.00012207 13.5V11.5ZM14.9999 13.5C15.2651 13.5 15.5194 13.3946 15.707 13.2071C15.8945 13.0196 15.9999 12.7652 15.9999 12.5C15.9999 12.2348 15.8945 11.9804 15.707 11.7929C15.5194 11.6054 15.2651 11.5 14.9999 11.5C14.7347 11.5 14.4803 11.6054 14.2928 11.7929C14.1052 11.9804 13.9999 12.2348 13.9999 12.5C13.9999 12.7652 14.1052 13.0196 14.2928 13.2071C14.4803 13.3946 14.7347 13.5 14.9999 13.5ZM14.9999 17.5C15.2651 17.5 15.5194 17.3946 15.707 17.2071C15.8945 17.0196 15.9999 16.7652 15.9999 16.5C15.9999 16.2348 15.8945 15.9804 15.707 15.7929C15.5194 15.6054 15.2651 15.5 14.9999 15.5C14.7347 15.5 14.4803 15.6054 14.2928 15.7929C14.1052 15.9804 13.9999 16.2348 13.9999 16.5C13.9999 16.7652 14.1052 17.0196 14.2928 17.2071C14.4803 17.3946 14.7347 17.5 14.9999 17.5ZM10.9999 12.5C10.9999 12.7652 10.8945 13.0196 10.707 13.2071C10.5194 13.3946 10.2651 13.5 9.99988 13.5C9.73466 13.5 9.48031 13.3946 9.29277 13.2071C9.10524 13.0196 8.99988 12.7652 8.99988 12.5C8.99988 12.2348 9.10524 11.9804 9.29277 11.7929C9.48031 11.6054 9.73466 11.5 9.99988 11.5C10.2651 11.5 10.5194 11.6054 10.707 11.7929C10.8945 11.9804 10.9999 12.2348 10.9999 12.5ZM10.9999 16.5C10.9999 16.7652 10.8945 17.0196 10.707 17.2071C10.5194 17.3946 10.2651 17.5 9.99988 17.5C9.73466 17.5 9.48031 17.3946 9.29277 17.2071C9.10524 17.0196 8.99988 16.7652 8.99988 16.5C8.99988 16.2348 9.10524 15.9804 9.29277 15.7929C9.48031 15.6054 9.73466 15.5 9.99988 15.5C10.2651 15.5 10.5194 15.6054 10.707 15.7929C10.8945 15.9804 10.9999 16.2348 10.9999 16.5ZM4.99988 13.5C5.26509 13.5 5.51945 13.3946 5.70698 13.2071C5.89452 13.0196 5.99988 12.7652 5.99988 12.5C5.99988 12.2348 5.89452 11.9804 5.70698 11.7929C5.51945 11.6054 5.26509 11.5 4.99988 11.5C4.73466 11.5 4.48031 11.6054 4.29277 11.7929C4.10524 11.9804 3.99988 12.2348 3.99988 12.5C3.99988 12.7652 4.10524 13.0196 4.29277 13.2071C4.48031 13.3946 4.73466 13.5 4.99988 13.5ZM4.99988 17.5C5.26509 17.5 5.51945 17.3946 5.70698 17.2071C5.89452 17.0196 5.99988 16.7652 5.99988 16.5C5.99988 16.2348 5.89452 15.9804 5.70698 15.7929C5.51945 15.6054 5.26509 15.5 4.99988 15.5C4.73466 15.5 4.48031 15.6054 4.29277 15.7929C4.10524 15.9804 3.99988 16.2348 3.99988 16.5C3.99988 16.7652 4.10524 17.0196 4.29277 17.2071C4.48031 17.3946 4.73466 17.5 4.99988 17.5Z" fill="#08A652"/>
</svg>
